<svg id="Слой_1" data-name="Слой 1" xmlns="http://www.w3.org/2000/svg" viewBox="0 0 231.3 25.95"><defs><style>.cls-1{fill:#3caa36;}.cls-2{fill:#3c3c3b;}</style></defs><path class="cls-1" d="M26.22,17.34a37.57,37.57,0,0,1,6.3-.5c3.44,0,5.66.54,7.32,1.76a4.94,4.94,0,0,1,2.22,4.29c0,2.34-1.7,4.39-4.51,5.33v.07c2.53.57,5.5,2.48,5.5,6.08a6.27,6.27,0,0,1-2.26,4.86c-1.86,1.55-4.87,2.27-9.22,2.27a45.05,45.05,0,0,1-5.35-.29Zm3.45,9.94h3.12c3.65,0,5.78-1.73,5.78-4.07,0-2.84-2.37-4-5.86-4a15.8,15.8,0,0,0-3,.22Zm0,11.63a21.55,21.55,0,0,0,2.89.14c3.56,0,6.85-1.19,6.85-4.72,0-3.31-3.13-4.67-6.89-4.67H29.67Z" transform="translate(-26.22 -15.73)"/><path class="cls-1" d="M64,36.53c0,1.8,0,3.38.16,4.75H61.07l-.2-2.84h-.08a7.36,7.36,0,0,1-6.34,3.24c-3,0-6.61-1.51-6.61-7.63V23.86h3.49v9.65c0,3.31,1.1,5.54,4.27,5.54a5.06,5.06,0,0,0,4.6-2.88,4.41,4.41,0,0,0,.31-1.62V23.86H64Z" transform="translate(-26.22 -15.73)"/><path class="cls-1" d="M70.18,15.73h3.48V41.28H70.18Z" transform="translate(-26.22 -15.73)"/><path class="cls-1" d="M79.92,15.73H83.4V41.28H79.92Z" transform="translate(-26.22 -15.73)"/><path class="cls-1" d="M91.6,33.15c.08,4.28,3.09,6,6.57,6a13.6,13.6,0,0,0,5.31-.9l.59,2.27a16.73,16.73,0,0,1-6.37,1.08c-5.9,0-9.43-3.53-9.43-8.78s3.41-9.4,9-9.4c6.26,0,7.92,5,7.92,8.21a10.91,10.91,0,0,1-.12,1.48Zm10.21-2.27c0-2-.91-5.15-4.83-5.15-3.52,0-5.06,2.95-5.34,5.15Z" transform="translate(-26.22 -15.73)"/><path class="cls-1" d="M114.09,18.86v5h5v2.41h-5v9.4c0,2.16.67,3.38,2.61,3.38a8.31,8.31,0,0,0,2-.22l.16,2.38a9.35,9.35,0,0,1-3.09.43A5.1,5.1,0,0,1,112,40.31c-1-.94-1.34-2.48-1.34-4.54v-9.5h-3V23.86h3V19.68Z" transform="translate(-26.22 -15.73)"/><path class="cls-1" d="M127.28,19A2.17,2.17,0,0,1,123,19a2,2,0,0,1,2.18-2A2,2,0,0,1,127.28,19ZM123.4,41.28V23.86h3.48V41.28Z" transform="translate(-26.22 -15.73)"/><path class="cls-1" d="M133.06,28.58c0-1.8,0-3.28-.16-4.72H136l.2,2.88h.08a7.16,7.16,0,0,1,6.33-3.28c2.65,0,6.77,1.44,6.77,7.42v10.4h-3.48v-10c0-2.81-1.15-5.15-4.44-5.15a4.91,4.91,0,0,0-4.67,3.24,4.18,4.18,0,0,0-.24,1.48V41.28h-3.48Z" transform="translate(-26.22 -15.73)"/><path class="cls-2" d="M164.34,17.34a37.57,37.57,0,0,1,6.3-.5c3.44,0,5.66.54,7.32,1.76a4.94,4.94,0,0,1,2.22,4.29c0,2.34-1.7,4.39-4.51,5.33v.07c2.53.57,5.5,2.48,5.5,6.08a6.27,6.27,0,0,1-2.26,4.86c-1.86,1.55-4.87,2.27-9.22,2.27a45.05,45.05,0,0,1-5.35-.29Zm3.45,9.94h3.13c3.64,0,5.78-1.73,5.78-4.07,0-2.84-2.38-4-5.86-4a15.85,15.85,0,0,0-3.05.22Zm0,11.63a21.55,21.55,0,0,0,2.89.14c3.56,0,6.85-1.19,6.85-4.72,0-3.31-3.13-4.67-6.89-4.67h-2.85Z" transform="translate(-26.22 -15.73)"/><path class="cls-2" d="M203.58,32.43c0,6.44-4.91,9.25-9.54,9.25-5.19,0-9.18-3.46-9.18-9,0-5.83,4.19-9.25,9.5-9.25C199.86,23.46,203.58,27.1,203.58,32.43Zm-15.2.18c0,3.81,2.41,6.69,5.82,6.69S200,36.46,200,32.53c0-3-1.62-6.69-5.74-6.69S188.38,29.3,188.38,32.61Z" transform="translate(-26.22 -15.73)"/><path class="cls-2" d="M219,41.28l-.28-2.19h-.12a7.41,7.41,0,0,1-5.86,2.59c-3.88,0-5.86-2.49-5.86-5,0-4.21,4.12-6.51,11.53-6.47v-.37c0-1.43-.44-4-4.36-4a10.31,10.31,0,0,0-5,1.3L208.26,25a12.85,12.85,0,0,1,6.29-1.55c5.86,0,7.29,3.64,7.29,7.13v6.52a22.09,22.09,0,0,0,.32,4.17Zm-.52-8.89c-3.8-.07-8.11.54-8.11,3.92,0,2.06,1.5,3,3.28,3a4.76,4.76,0,0,0,4.64-2.92,3,3,0,0,0,.19-1Z" transform="translate(-26.22 -15.73)"/><path class="cls-2" d="M227.86,29.3c0-2.06,0-3.82-.16-5.44h3.05l.12,3.42H231a5.68,5.68,0,0,1,5.3-3.82,4.16,4.16,0,0,1,1,.11v3a5.78,5.78,0,0,0-1.18-.11,4.72,4.72,0,0,0-4.68,4.07A8,8,0,0,0,231.3,32v9.28h-3.44Z" transform="translate(-26.22 -15.73)"/><path class="cls-2" d="M257.36,15.73V36.78c0,1.55,0,3.31.16,4.5h-3.13l-.16-3h-.08a7.22,7.22,0,0,1-6.53,3.42c-4.63,0-8.2-3.57-8.2-8.86,0-5.79,3.92-9.36,8.6-9.36,2.93,0,4.91,1.26,5.78,2.67h.08V15.73ZM253.88,31a5.09,5.09,0,0,0-.16-1.33,5,5,0,0,0-5-3.67c-3.6,0-5.74,2.88-5.74,6.73,0,3.53,1.9,6.44,5.66,6.44a5.15,5.15,0,0,0,5.11-3.78,5,5,0,0,0,.16-1.37Z" transform="translate(-26.22 -15.73)"/></svg>